<svg width="13" height="14" viewBox="0 0 13 14" fill="none" xmlns="http://www.w3.org/2000/svg">
<path d="M0 0.8C0 0.519974 0 0.379961 0.0544967 0.273005C0.102433 0.178924 0.178924 0.102433 0.273005 0.0544967C0.379961 0 0.519974 0 0.8 0H3.64082C3.93942 0 4.08872 0 4.19948 0.0594542C4.29682 0.1117 4.37411 0.194708 4.41929 0.295516C4.4707 0.410233 4.46006 0.559154 4.43879 0.856998L3.54709 13.3408C3.53404 13.5234 3.52752 13.6147 3.49768 13.6882C3.4422 13.8247 3.3293 13.9299 3.18914 13.9755C3.11374 14 3.02219 14 2.83911 14C2.05802 14 1.66747 14 1.35283 13.8924C0.767516 13.6922 0.307771 13.2325 0.107603 12.6472C0 12.3325 0 11.942 0 11.1609V0.8Z" fill="white"/>
<path d="M4.94693 0.743002C4.96563 0.481181 4.97498 0.35027 5.03194 0.251059C5.08208 0.163709 5.15744 0.0935398 5.24815 0.0497431C5.35116 0 5.48241 0 5.7449 0H8.14082C8.43942 0 8.58872 0 8.69948 0.0594542C8.79682 0.1117 8.87411 0.194708 8.91929 0.295516C8.9707 0.410233 8.96006 0.559154 8.93879 0.856998L8.05307 13.257C8.03437 13.5188 8.02502 13.6497 7.96806 13.7489C7.91792 13.8363 7.84256 13.9065 7.75185 13.9503C7.64884 14 7.51759 14 7.2551 14H4.85918C4.56058 14 4.41128 14 4.30052 13.9405C4.20318 13.8883 4.12589 13.8053 4.08071 13.7045C4.0293 13.5898 4.03994 13.4408 4.06121 13.143L4.94693 0.743002Z" fill="white"/>
<path d="M9.44693 0.743002C9.46563 0.481181 9.47498 0.35027 9.53194 0.251059C9.58208 0.163709 9.65744 0.0935398 9.74815 0.0497431C9.85116 0 9.98241 0 10.2449 0H12.2C12.48 0 12.62 0 12.727 0.0544967C12.8211 0.102433 12.8976 0.178924 12.9455 0.273005C13 0.379961 13 0.519974 13 0.8V10.8C13 11.9201 13 12.4802 12.782 12.908C12.5903 13.2843 12.2843 13.5903 11.908 13.782C11.4802 14 10.9201 14 9.8 14H9.35918C9.06058 14 8.91128 14 8.80052 13.9405C8.70318 13.8883 8.62589 13.8053 8.58071 13.7045C8.5293 13.5898 8.53994 13.4408 8.56121 13.143L9.44693 0.743002Z" fill="white"/>
</svg>
