<svg width="32" height="32" viewBox="0 0 32 32" fill="none" xmlns="http://www.w3.org/2000/svg">
  <rect width="32" height="32" rx="7" fill="#0a0a0a"/>
  <svg x="5" y="5" width="22" height="22" viewBox="0 0 13 14" fill="none">
    <path d="M0 0.8C0 0.52 0 0.38 0.055 0.273A.5.5 0 0 1 .273.055C.38 0 .52 0 .8 0h2.841c.299 0 .448 0 .559.06a.42.42 0 0 1 .22.236c.051.114.04.264.019.561L3.547 13.341a.87.87 0 0 1-.05.347.42.42 0 0 1-.308.287C3.114 14 3.022 14 2.839 14c-.781 0-1.172 0-1.487-.108A1.6 1.6 0 0 1 .108 12.647C0 12.333 0 11.942 0 11.161V.8Z" fill="white"/>
    <path d="M4.947.743c.019-.262.028-.393.085-.492A.42.42 0 0 1 5.248.05C5.351 0 5.482 0 5.745 0h2.396c.298 0 .448 0 .559.06a.42.42 0 0 1 .22.236c.051.114.04.264.019.561L8.053 13.257a.87.87 0 0 1-.085.492.42.42 0 0 1-.216.201C7.649 14 7.518 14 7.255 14H4.859c-.298 0-.448 0-.559-.06a.42.42 0 0 1-.22-.236c-.051-.114-.04-.264-.019-.561L4.947.743Z" fill="white"/>
    <path d="M9.447.743c.019-.262.028-.393.085-.492A.42.42 0 0 1 9.748.05C9.851 0 9.982 0 10.245 0H12.2c.28 0 .42 0 .527.055a.5.5 0 0 1 .218.218C13 .38 13 .52 13 .8v10c0 1.12 0 1.68-.218 2.108a2 2 0 0 1-.874.874C11.48 14 10.92 14 9.8 14h-.441c-.298 0-.448 0-.559-.06a.42.42 0 0 1-.22-.236c-.051-.114-.04-.264-.019-.561L9.447.743Z" fill="white"/>
  </svg>
</svg>
